<svg width="278" height="89" viewBox="0 0 278 89" fill="none" xmlns="http://www.w3.org/2000/svg">
<path d="M7.81152 0.344727H31.498C32.7578 0.344727 33.3877 0.798828 33.3877 1.70703C33.3877 2.11719 33.0947 2.86426 32.5088 3.94824C31.9229 5.00293 31.2197 5.89648 30.3994 6.62891C29.7256 7.24414 28.6562 7.55176 27.1914 7.55176H1.9668C1.52734 7.55176 1.20508 7.53711 1 7.50781C0.794922 7.44922 0.604492 7.31738 0.428711 7.1123C0.282227 6.90723 0.208984 6.61426 0.208984 6.2334C0.208984 5.14941 1.05859 3.9043 2.75781 2.49805C4.48633 1.0625 6.1709 0.344727 7.81152 0.344727ZM0.25293 60.1104V38.4453C0.25293 37.3906 0.604492 36.7021 1.30762 36.3799C2.04004 36.0283 3.16797 35.8525 4.69141 35.8525C6.33203 35.8525 7.47461 36.0283 8.11914 36.3799C8.76367 36.7021 9.08594 37.3906 9.08594 38.4453V52.9912C9.08594 54.1924 9.68652 54.793 10.8877 54.793H32.377C33.6367 54.793 34.2666 55.2471 34.2666 56.1553C34.2666 56.5654 33.9736 57.3271 33.3877 58.4404C32.8018 59.5244 32.1133 60.418 31.3223 61.1211C30.6484 61.707 29.5645 62 28.0703 62H1.79102C0.765625 62 0.25293 61.3701 0.25293 60.1104ZM0.25293 31.4141V12.8252C0.25293 11.7705 0.604492 11.0674 1.30762 10.7158C2.04004 10.3643 3.16797 10.1885 4.69141 10.1885C6.33203 10.1885 7.47461 10.3643 8.11914 10.7158C8.76367 11.0381 9.08594 11.7412 9.08594 12.8252V24.207C9.08594 25.4082 9.68652 26.0088 10.8877 26.0088H28.7734C30.0332 26.0088 30.6631 26.4629 30.6631 27.3711C30.6631 27.7812 30.3701 28.5283 29.7842 29.6123C29.1982 30.667 28.5098 31.5605 27.7188 32.293C27.0449 32.9082 25.9609 33.2158 24.4668 33.2158H2.05469C0.853516 33.2158 0.25293 32.6152 0.25293 31.4141ZM75.9268 18.1426L63.71 56.7705C63.1826 58.4404 62.2012 59.8027 60.7656 60.8574C59.3594 61.9121 57.9678 62.4395 56.5908 62.4395C55.5947 62.4395 55.0967 61.9707 55.0967 61.0332C55.0967 60.6816 55.1846 60.2568 55.3604 59.7588L67.2256 21.3066C67.5771 20.0469 68.002 19.124 68.5 18.5381C69.2031 17.6885 70.1846 17 71.4443 16.4727C72.7334 15.916 73.8467 15.6377 74.7842 15.6377C75.1943 15.6377 75.5166 15.7695 75.751 16.0332C76.0146 16.2969 76.1465 16.6484 76.1465 17.0879C76.1465 17.3516 76.0732 17.7031 75.9268 18.1426ZM55.5801 49.7832C55.5801 51.4238 55.1846 53.1523 54.3936 54.9688C53.6318 56.7559 52.9287 57.6494 52.2842 57.6494C51.5811 57.6494 51.0098 56.9902 50.5703 55.6719L39.1445 21.79C38.9395 21.1748 38.8369 20.7061 38.8369 20.3838C38.8369 19.3291 39.54 18.2744 40.9463 17.2197C42.3525 16.165 43.4951 15.6377 44.374 15.6377C45.1357 15.6377 45.707 16.2676 46.0879 17.5273L54.9648 46.5312C55.375 47.9961 55.5801 49.0801 55.5801 49.7832ZM90.1211 34.0068C90.1211 34.8271 90.3701 35.3545 90.8682 35.5889C91.3955 35.7939 92.1572 35.8965 93.1533 35.8965C95.7021 35.8965 97.8848 35.6768 99.7012 35.2373C101.518 34.7979 102.909 34.1826 103.876 33.3916C104.843 32.6006 105.531 31.7656 105.941 30.8867C106.381 30.0078 106.601 29.041 106.601 27.9863C106.601 26.1699 105.971 24.7197 104.711 23.6357C103.451 22.5225 101.43 21.9658 98.6465 21.9658C94.2812 21.9658 90.1797 23.3428 86.3418 26.0967C85.1992 26.9463 84.4814 27.3711 84.1885 27.3711C83.6904 27.3711 83.4414 27.0928 83.4414 26.5361C83.4414 25.8037 83.8662 24.9102 84.7158 23.8555C86.2979 21.834 88.0996 20.1787 90.1211 18.8896C92.1426 17.6006 93.9883 16.7363 95.6582 16.2969C97.3281 15.8574 98.9834 15.6377 100.624 15.6377C102.733 15.6377 104.638 15.8574 106.337 16.2969C108.036 16.7363 109.545 17.4248 110.863 18.3623C112.182 19.2705 113.207 20.5303 113.939 22.1416C114.672 23.7236 115.038 25.584 115.038 27.7227C115.038 32.293 112.855 35.8232 108.49 38.3135C104.154 40.7744 98.2217 42.0049 90.6924 42.0049C88.583 42.0049 86.1953 41.8877 83.5293 41.6533C82.2109 41.5654 81.5518 40.9209 81.5518 39.7197C81.5518 36.4678 82.0205 34.0361 82.958 32.4248C83.8955 30.7842 85.1113 29.5244 86.6055 28.6455C88.0703 27.7959 89.1836 27.3711 89.9453 27.3711C90.6484 27.3711 91 27.8105 91 28.6895C91 29.041 90.8535 29.9053 90.5605 31.2822C90.2676 32.6299 90.1211 33.5381 90.1211 34.0068ZM81.9033 46.2676C81.9033 44.7441 82.6064 43.9824 84.0127 43.9824H87.792C88.5537 43.9824 89.0811 44.1289 89.374 44.4219C89.6963 44.7148 89.9453 45.3594 90.1211 46.3555C91.2637 53.4746 95.1602 57.0342 101.811 57.0342C103.48 57.0342 105.048 56.8291 106.513 56.4189C107.978 56.0088 109.105 55.5547 109.896 55.0566C110.717 54.5586 111.464 54.1045 112.138 53.6943C112.841 53.2842 113.354 53.0791 113.676 53.0791C114.35 53.0791 114.687 53.4453 114.687 54.1777C114.687 54.793 114.35 55.584 113.676 56.5508C113.002 57.5176 112.035 58.5283 110.775 59.583C109.545 60.6084 107.831 61.4873 105.634 62.2197C103.466 62.9814 101.107 63.3623 98.5586 63.3623C93.2852 63.3623 89.1836 61.7803 86.2539 58.6162C83.3535 55.4229 81.9033 51.3066 81.9033 46.2676ZM123.959 60.5498V36.9072C123.959 35.2666 124.354 34.0068 125.146 33.1279C125.937 32.2197 126.874 31.4141 127.958 30.7109C129.042 29.9785 129.892 29.6123 130.507 29.6123C131.415 29.6123 131.869 30.2422 131.869 31.502V56.7705C131.869 58.3818 131.137 59.7295 129.672 60.8135C128.236 61.8975 126.845 62.4395 125.497 62.4395C124.472 62.4395 123.959 61.8096 123.959 60.5498ZM134.286 19.373C135.956 18.1426 137.699 17.2197 139.516 16.6045C141.332 15.96 142.958 15.6377 144.394 15.6377C149.491 15.6377 153.227 17.0732 155.6 19.9443C157.973 22.7861 159.159 27.5615 159.159 34.2705V56.7705C159.159 58.3525 158.441 59.7002 157.006 60.8135C155.57 61.8975 154.164 62.4395 152.787 62.4395C151.762 62.4395 151.249 61.8096 151.249 60.5498V43.1914C151.249 40.4375 151.22 38.3574 151.161 36.9512C151.132 35.5449 151.015 33.8604 150.81 31.8975C150.634 29.9346 150.326 28.4844 149.887 27.5469C149.447 26.5801 148.847 25.5986 148.085 24.6025C147.353 23.6064 146.386 22.918 145.185 22.5371C143.983 22.1562 142.548 21.9658 140.878 21.9658C137.509 21.9658 132.895 24.207 127.035 28.6895C126.098 29.4219 125.365 29.7881 124.838 29.7881C124.252 29.7881 123.959 29.29 123.959 28.2939V21.3066C123.959 19.7246 124.677 18.3916 126.112 17.3076C127.577 16.1943 128.983 15.6377 130.331 15.6377C131.356 15.6377 131.869 16.2676 131.869 17.5273V18.626C131.869 19.6807 132.104 20.208 132.572 20.208C132.982 20.208 133.554 19.9297 134.286 19.373ZM181.527 27.9863V43.3672C181.527 45.8867 181.674 48.0254 181.967 49.7832C182.26 51.5117 182.685 52.918 183.241 54.002C183.827 55.0859 184.545 55.8623 185.395 56.3311C186.273 56.7998 187.299 57.0342 188.471 57.0342C189.848 57.0342 190.99 56.873 191.898 56.5508C192.836 56.1992 193.612 55.833 194.228 55.4521C194.843 55.042 195.355 54.6758 195.766 54.3535C196.176 54.002 196.586 53.8262 196.996 53.8262C197.377 53.8262 197.655 53.9434 197.831 54.1777C198.007 54.3828 198.095 54.6611 198.095 55.0127C198.095 55.5107 197.89 56.2285 197.479 57.166C197.099 58.0742 196.439 58.9971 195.502 59.9346C194.564 60.8428 193.319 61.6338 191.767 62.3076C190.243 63.0107 188.324 63.3623 186.01 63.3623C183.754 63.3623 181.835 63.04 180.253 62.3955C178.7 61.751 177.426 60.7109 176.43 59.2754C175.434 57.8105 174.716 55.9209 174.276 53.6064C173.837 51.2627 173.617 48.3916 173.617 44.9932V27.9863C173.617 27.3418 173.749 26.8584 174.013 26.5361C174.306 26.1846 174.657 25.9355 175.067 25.7891C175.507 25.6426 175.946 25.5693 176.386 25.5693C176.854 25.5693 177.265 25.5693 177.616 25.5693C178.144 25.5693 178.642 25.5986 179.11 25.6572C179.608 25.6865 180.033 25.7891 180.385 25.9648C180.736 26.1113 181.015 26.3457 181.22 26.668C181.425 26.9902 181.527 27.4297 181.527 27.9863ZM171.332 18.4502V20.9551C171.332 21.6875 171.171 22.2588 170.849 22.6689C170.526 23.0791 169.911 23.2842 169.003 23.2842H166.938C165.912 23.2842 165.399 22.9619 165.399 22.3174C165.399 21.5264 166.029 20.4424 167.289 19.0654C168.578 17.6885 169.604 17 170.365 17C171.01 17 171.332 17.4834 171.332 18.4502ZM181.527 9.00195V14.6709C181.527 15.5791 181.732 16.1943 182.143 16.5166C182.553 16.8389 183.124 17 183.856 17H195.634C196.659 17 197.172 17.3369 197.172 18.0107C197.172 18.7139 196.674 19.5928 195.678 20.6475C194.711 21.7021 193.744 22.4053 192.777 22.7568C191.84 23.1084 190.155 23.2842 187.724 23.2842H175.946C175.214 23.2842 174.643 23.123 174.232 22.8008C173.822 22.4785 173.617 21.8633 173.617 20.9551V12.6494C173.617 11.0381 174.335 9.71973 175.771 8.69434C177.206 7.63965 178.612 7.1123 179.989 7.1123C181.015 7.1123 181.527 7.74219 181.527 9.00195ZM218.31 63.3623C215.849 63.3623 213.725 63.04 211.938 62.3955C210.18 61.7803 208.744 60.7549 207.631 59.3193C206.518 57.8545 205.697 55.9648 205.17 53.6504C204.643 51.3359 204.379 48.4795 204.379 45.0811V21.2188C204.379 20.4277 204.584 19.6953 204.994 19.0215C205.434 18.3184 205.961 17.7178 206.576 17.2197C207.221 16.7217 207.909 16.3408 208.642 16.0771C209.403 15.7842 210.106 15.6377 210.751 15.6377C211.776 15.6377 212.289 16.2676 212.289 17.5273V42.3125L212.421 46.1797C212.45 47.0293 212.494 47.7178 212.553 48.2451C212.611 48.7432 212.685 49.1973 212.772 49.6074C212.86 50.0176 212.948 50.4131 213.036 50.7939C213.153 51.1748 213.3 51.6582 213.476 52.2441C213.974 54.002 214.926 55.2471 216.332 55.9795C217.738 56.6826 219.511 57.0342 221.649 57.0342C223.847 57.0342 225.941 56.4629 227.934 55.3203C228.49 54.998 228.871 54.8369 229.076 54.8369C229.516 54.8369 229.735 55.3789 229.735 56.4629C229.735 57.6641 229.311 58.7041 228.461 59.583C227.611 60.4326 226.586 61.1357 225.385 61.6924C224.184 62.249 222.924 62.6592 221.605 62.9229C220.316 63.2158 219.218 63.3623 218.31 63.3623ZM239.843 17.5273V70.9209C239.843 73.1182 239.564 75.1396 239.008 76.9854C238.451 78.8604 237.748 80.3691 236.898 81.5117C236.078 82.6836 235.17 83.6797 234.174 84.5C233.178 85.3203 232.27 85.8916 231.449 86.2139C230.658 86.5654 229.97 86.7412 229.384 86.7412C228.915 86.7412 228.681 86.5361 228.681 86.126C228.681 85.8623 228.915 85.4082 229.384 84.7637C230.38 83.3867 231.054 81.6436 231.405 79.5342C231.786 77.4541 231.977 74.6416 231.977 71.0967L231.889 21.3066C231.889 20.1641 232.167 19.2705 232.724 18.626C233.485 17.7471 234.379 17.0293 235.404 16.4727C236.459 15.916 237.426 15.6377 238.305 15.6377C239.33 15.6377 239.843 16.2676 239.843 17.5273ZM214.003 80.0176C215.058 80.8086 216.039 81.3652 216.947 81.6875C217.855 82.0391 218.969 82.2148 220.287 82.2148C221.459 82.2148 222.792 82.0537 224.286 81.7314C225.81 81.4092 226.615 81.248 226.703 81.248C227.465 81.248 227.846 81.6143 227.846 82.3467C227.846 83.6943 226.703 85.0566 224.418 86.4336C222.133 87.8398 219.672 88.543 217.035 88.543C214.457 88.543 212.011 88.001 209.696 86.917C207.411 85.833 206.269 84.7637 206.269 83.709C206.269 82.6543 206.869 81.6582 208.07 80.7207C209.447 79.5781 210.575 79.0068 211.454 79.0068C212.333 79.0068 213.183 79.3438 214.003 80.0176ZM250.697 60.5498V38.4014C250.697 36.7607 251.093 35.501 251.884 34.6221C252.675 33.7139 253.612 32.8936 254.696 32.1611C255.78 31.3994 256.63 31.0186 257.245 31.0186C258.153 31.0186 258.607 31.6484 258.607 32.9082V56.9023C258.607 58.5137 257.89 59.8467 256.454 60.9014C255.019 61.9268 253.612 62.4395 252.235 62.4395C251.21 62.4395 250.697 61.8096 250.697 60.5498ZM269.594 15.6377C271.264 15.6377 273.007 16.0039 274.823 16.7363C276.669 17.4688 277.592 18.4209 277.592 19.5928C277.592 20.5303 276.977 21.5117 275.746 22.5371C274.516 23.5332 273.432 24.0312 272.494 24.0312C271.703 24.0312 270.59 23.665 269.154 22.9326C267.807 22.2881 266.576 21.9658 265.463 21.9658C264.76 21.9658 264.086 22.083 263.441 22.3174C262.797 22.5225 262.05 22.9473 261.2 23.5918C260.351 24.207 259.647 24.749 259.091 25.2178C258.563 25.6572 257.641 26.4922 256.322 27.7227C255.033 28.9238 254.022 29.8467 253.29 30.4912C252.646 31.0479 252.104 31.3262 251.664 31.3262C251.02 31.3262 250.697 30.7842 250.697 29.7002V21.1748C250.697 19.5928 251.415 18.2744 252.851 17.2197C254.315 16.165 255.722 15.6377 257.069 15.6377C258.095 15.6377 258.607 16.2676 258.607 17.5273V19.9883C258.607 20.9258 258.812 21.3945 259.223 21.3945C259.545 21.3945 260.058 21.043 260.761 20.3398C263.896 17.2051 266.84 15.6377 269.594 15.6377Z" fill="black"/>
</svg>
